<svg xmlns="https://www.w3.org/2000/svg" width="8.913" height="8.622" viewBox="0 0 8.9130001 8.6219997"><path d="M8.91 4.167q0 .116-.09.205l-4.16 4.16q-.09.09-.205.09-.115 0-.205-.09L.09 4.372Q0 4.283 0 4.168q0-.116.09-.205l.445-.447q.09-.09.205-.09.115 0 .205.09l3.51 3.51 3.508-3.51q.09-.09.206-.09.115 0 .204.09l.447.446q.09.09.09.205zm0-3.428q0 .115-.09.204L4.662 5.106q-.09.09-.205.09-.115 0-.205-.09L.092.946Q.002.856.002.74q0-.116.09-.205L.537.09Q.627 0 .742 0q.115 0 .205.09l3.51 3.51L7.965.09Q8.055 0 8.17 0q.117 0 .206.09l.447.446q.09.09.09.206z" fill="#444"/></svg>