<svg xmlns="https://www.w3.org/2000/svg" width="8.625" height="8.91" viewBox="0 0 8.625 8.9099998"><path d="M5.195 8.168q0 .116-.09.205l-.445.447q-.09.09-.205.09-.115 0-.205-.09L.09 4.66Q0 4.57 0 4.454q0-.116.09-.204L4.25.09Q4.34 0 4.455 0q.115 0 .205.09l.446.445q.088.09.088.206 0 .117-.09.206L1.597 4.452l3.51 3.51q.088.088.088.204zm3.43 0q0 .116-.09.205l-.446.447q-.09.09-.206.09-.115 0-.205-.09L3.52 4.66q-.09-.09-.09-.206 0-.116.09-.204L7.68.09Q7.77 0 7.883 0 8 0 8.09.09l.445.445q.09.09.09.206 0 .117-.09.206l-3.51 3.51 3.51 3.51q.09.088.09.204z" fill="#444"/></svg>