<svg xmlns="https://www.w3.org/2000/svg" width="8.91" height="8.623" viewBox="0 0 8.9099998 8.6230001"><path d="M8.908 7.883q0 .116-.09.205l-.445.445q-.09.09-.205.09-.115 0-.205-.09l-3.51-3.51-3.508 3.51q-.09.09-.205.09-.115 0-.205-.09L.09 8.09Q0 8 0 7.882q0-.116.09-.205l4.16-4.162q.09-.09.205-.09.115 0 .205.09l4.16 4.16q.09.09.09.206zm0-3.428q0 .116-.09.205l-.445.447q-.09.09-.205.09-.115 0-.205-.09l-3.51-3.51-3.508 3.51q-.09.09-.205.09-.115 0-.205-.09L.09 4.66Q0 4.57 0 4.454q0-.116.09-.205L4.25.09Q4.34 0 4.455 0q.115 0 .205.09l4.16 4.16q.09.09.09.206z" fill="#444"/></svg>