<svg id="svg2" xmlns:rdf="https://www.w3.org/1999/02/22-rdf-syntax-ns#" xmlns="https://www.w3.org/2000/svg" height="14.666" width="14.667" version="1.1" xmlns:cc="https://creativecommons.org/ns#" xmlns:dc="https://purl.org/dc/elements/1.1/" viewBox="0 0 14.667065 14.66602">
 <path id="path4" fill="#fff" d="m10.167 9.494q0.27 0 0.47 0.2l1.884 1.884q0.198 0.198 0.198 0.474 0 0.27-0.198 0.47t-0.47 0.197q-0.275 0-0.473-0.198l-1.885-1.885q-0.194-0.193-0.194-0.474 0-0.276 0.195-0.47t0.472-0.196zm-5.66 0q0.275 0 0.47 0.196t0.195 0.47-0.198 0.475l-1.885 1.886q-0.198 0.198-0.47 0.198-0.275 0-0.47-0.195t-0.195-0.472q0-0.28 0.193-0.474l1.885-1.885q0.198-0.2 0.474-0.2zm-3.84-2.827h2.667q0.276 0 0.47 0.195t0.196 0.47-0.195 0.472-0.47 0.195h-2.668q-0.276 0-0.47-0.195-0.19396-0.195-0.19696-0.47-0.0029952-0.275 0.195-0.472t0.47-0.195zm6.667 4q0.276 0 0.47 0.195t0.196 0.47v2.668q0 0.276-0.195 0.47t-0.47 0.196-0.47-0.195-0.196-0.47v-2.668q0-0.277 0.195-0.472t0.47-0.195zm-4.714-8.718q0.27 0 0.47 0.198l1.884 1.885q0.198 0.198 0.198 0.47 0 0.275-0.195 0.47t-0.47 0.195q-0.282 0-0.475-0.193l-1.885-1.885q-0.193-0.193-0.193-0.474 0-0.275 0.195-0.47t0.47-0.195zm8.714 4.718h2.667q0.276 0 0.47 0.195t0.196 0.47-0.195 0.472-0.47 0.195h-2.668q-0.276 0-0.47-0.195t-0.197-0.47 0.195-0.472 0.47-0.195zm-4-6.666q0.276 0 0.47 0.195t0.196 0.47v2.668q0 0.276-0.195 0.47t-0.471 0.197-0.47-0.195-0.197-0.472v-2.667q0-0.276 0.195-0.47t0.472-0.197zm4.72 1.948q0.27 0 0.468 0.198t0.198 0.47q0 0.275-0.198 0.473l-1.885 1.884q-0.193 0.194-0.47 0.194-0.285 0-0.476-0.19t-0.19-0.477q0-0.276 0.193-0.47l1.885-1.884q0.198-0.198 0.474-0.198z"/>
</svg>
