<svg xmlns="https://www.w3.org/2000/svg" width="14.856" height="14.857" viewBox="0 0 14.856018 14.857018"><path d="M10.286 6.286q0-1.653-1.174-2.827-1.174-1.175-2.826-1.174-1.652 0-2.826 1.172-1.174 1.17-1.174 2.828 0 1.657 1.174 2.825 1.174 1.17 2.826 1.175 1.652.006 2.826-1.176 1.174-1.183 1.174-2.827zm4.57 7.427q0 .464-.338.804t-.804.34q-.482 0-.804-.34l-3.063-3.05q-1.598 1.106-3.563 1.106-1.277 0-2.442-.496-1.165-.496-2.01-1.34-.845-.844-1.337-2.01Q.003 7.558 0 6.283-.003 5.01.495 3.842q.498-1.167 1.34-2.01Q2.677.99 3.84.496 5.003.003 6.282 0q1.28-.003 2.442.496 1.163.5 2.01 1.34.847.84 1.338 2.008.49 1.167.496 2.442 0 1.964-1.107 3.563l3.065 3.063q.33.33.33.804z" fill="#fff"/></svg>